Coordinates
version=1
nRows=21
nColumns=33
inDegrees=yes

Units are S.I. units (second, meters, Newtons, ...)
Angles are in degrees.

endheader
time	ground_thorax_rot_x	ground_thorax_rot_y	ground_thorax_rot_z	ground_thorax_tx	ground_thorax_ty	ground_thorax_tz	clav_prot_r	clav_elev_r	scapula_abduction_r	scapula_elevation_r	scapula_upward_rot_r	scapula_winging_r	shoulder_elv_r	plane_of_elev_r	axial_rot_r	elbow_flexion_r	pro_sup_r	wrist_flex_r	wrist_dev_r	clav_prot_l	clav_elev_l	scapula_abduction_l	scapula_elevation_l	scapula_upward_rot_l	scapula_winging_l	shoulder_elv_l	plane_of_elev_l	axial_rot_l	elbow_flexion_l	pro_sup_l	wrist_flex_l	wrist_dev_l
      3.33000000	     24.55380011	     32.50232399	     48.02866273	    -65.86676079	    773.86744183	      5.85063704	     13.88774831	     36.17948312	     32.32904247	     45.00000000	    -45.00000000	  -4756.85125291	  -1553.73657006	    146.74726266	    179.99999979	   2163.41343322	     52.88981193	     20.77395404	     13.57814511	      6.48653537	    -45.00000000	    -35.75352936	     45.00000000	    -45.00000000	   1892.32868866	  -1901.88527915	    143.62204646	    136.40208223	    726.06547281	     19.12582086	     10.30662498	    -17.76369541
      3.34000000	     24.41435709	     32.62149640	     48.22107214	    -65.76165125	    773.86226050	      5.99890260	     13.80965900	     35.93829474	     32.15965075	     45.00000000	    -45.00000000	  -4756.77483795	  -1553.60819597	    146.78789870	    179.99999979	   2163.38218757	     53.10609514	     20.85553603	     13.29419434	      6.96170171	    -45.00000000	    -35.72047082	     45.00000000	    -45.00000000	   1892.53640673	  -1901.87155058	    143.52739551	    135.45327527	    726.17465226	     20.31068757	     10.24134339	    -17.86470718
      3.35000000	     24.20432948	     32.80727587	     48.50599634	    -65.72932408	    773.85752770	      6.13468271	     13.74459320	     36.19885459	     32.13902348	     45.00000000	    -45.00000000	  -4756.97780315	  -1553.77634345	    146.81293124	    179.99999979	   2163.47934441	     53.30269935	     20.84715167	     13.62784574	      6.65270157	    -45.00000000	    -35.79920904	     45.00000000	    -45.00000000	   1892.40986178	  -1901.95754611	    143.79056353	    135.54828059	    726.21381200	     20.97579927	      9.89155291	    -17.98017080
      3.36000000	     24.53832315	     32.45045452	     48.03542691	    -65.76536091	    773.84858751	      6.26409791	     13.75342064	     35.85572731	     32.08426662	     45.00000000	    -45.00000000	  -4756.58966268	  -1553.41928022	    146.52224426	    179.99999979	   2163.34115899	     53.32911407	     20.89147117	     13.07771265	      7.03246379	    -45.00000000	    -35.54857263	     45.00000000	    -45.00000000	   1892.77688863	  -1901.86622516	    143.29109541	    135.24662555	    726.30569468	     21.58129940	     10.25470716	    -18.02303954
      3.37000000	     24.19912724	     32.80788422	     48.54779661	    -65.88133100	    773.83004475	      6.40578875	     13.78484648	     36.23450199	     32.20349517	     45.00000000	    -45.00000000	  -4757.00631629	  -1553.70175089	    146.74389487	    179.99999979	   2163.28840264	     53.48728254	     20.83907923	     13.67994506	      6.67079827	    -45.00000000	    -35.73601837	     45.00000000	    -45.00000000	   1892.46763108	  -1901.89647311	    143.88230119	    135.61552086	    726.29485554	     22.03984511	      9.72382083	    -18.10386258
      3.38000000	     24.48558718	     32.57136078	     47.97543365	    -66.06445858	    773.80130042	      6.52901792	     13.70496221	     35.92881484	     32.22104278	     45.00000000	    -45.00000000	  -4756.73511377	  -1553.49514695	    146.71474017	    179.99999979	   2163.37737640	     53.42795722	     20.94209161	     13.15169239	      6.90589753	    -45.00000000	    -35.80189885	     45.00000000	    -45.00000000	   1892.65490320	  -1901.86558345	    143.40901925	    135.27209115	    726.38828804	     22.53455321	     10.11740179	    -18.16130871
      3.39000000	     24.13835970	     32.86518915	     48.49678290	    -66.31976859	    773.75886999	      6.64600979	     13.80918447	     36.25083598	     32.20031018	     45.00000000	    -45.00000000	  -4757.13042604	  -1553.74362794	    146.72612017	    179.99999979	   2163.34512556	     53.52916954	     20.88766587	     13.70456817	      6.63089264	    -45.00000000	    -35.73597042	     45.00000000	    -45.00000000	   1892.40659032	  -1901.83711800	    143.92424666	    135.64531801	    726.29964328	     22.77415199	      9.61690980	    -18.18060095
      3.40000000	     24.34884841	     32.74515573	     48.17163616	    -66.64264318	    773.70209978	      6.75394392	     13.73980466	     36.02795754	     32.27840421	     45.00000000	    -45.00000000	  -4756.97312742	  -1553.57315449	    146.76621718	    179.99999979	   2163.44794919	     53.46754073	     20.95070115	     13.32110557	      6.81801101	    -45.00000000	    -35.71015170	     45.00000000	    -45.00000000	   1892.59264491	  -1901.85206911	    143.61477293	    135.48640626	    726.44571134	     23.11223367	      9.85500644	    -18.23759329
      3.41000000	     24.33182760	     32.73867476	     48.05791346	    -67.02474478	    773.63202967	      6.85113518	     13.77127802	     36.19079407	     32.11309458	     45.00000000	    -45.00000000	  -4757.06312446	  -1553.56695627	    146.50563020	    179.99999979	   2163.50704035	     53.49491789	     20.97409598	     13.49868980	      6.71334323	    -45.00000000	    -35.80746656	     45.00000000	    -45.00000000	   1892.58287276	  -1901.79676000	    143.58836404	    135.50664341	    726.49187782	     23.27415900	      9.75896840	    -18.28015021
      3.42000000	     24.36291099	     32.74599346	     48.08513262	    -67.46120116	    773.55020855	      6.93739599	     13.70039437	     36.01685593	     32.38657634	     45.00000000	    -45.00000000	  -4757.03522276	  -1553.61233519	    146.84506333	    179.99999979	   2163.52206590	     53.45618334	     20.99031039	     13.26028182	      6.80522167	    -45.00000000	    -35.63991203	     45.00000000	    -45.00000000	   1892.65034288	  -1901.76126859	    143.57667295	    135.56829521	    726.46855569	     23.40069712	      9.82703039	    -18.27957625
      3.43000000	     24.34497779	     32.83688213	     47.94805431	    -67.94771337	    773.45903594	      7.01220219	     13.76788668	     36.19270054	     32.17819844	     45.00000000	    -45.00000000	  -4757.12814169	  -1553.51492288	    146.58706645	    179.99999979	   2163.45325349	     53.50412934	     20.99240102	     13.50979334	      6.72395962	    -45.00000000	    -35.81136013	     45.00000000	    -45.00000000	   1892.59558431	  -1901.78712524	    143.53539843	    135.63033337	    726.50851125	     23.45564892	      9.74441103	    -18.30882279
      3.44000000	     24.39580661	     32.76823945	     47.91891844	    -68.48129171	    773.36173807	      7.07441572	     13.69413970	     36.03983799	     32.33262358	     45.00000000	    -45.00000000	  -4757.13642585	  -1553.56311882	    146.70380999	    179.99999979	   2163.51252720	     53.45773710	     21.01862656	     13.29481509	      6.78904695	    -45.00000000	    -35.62743134	     45.00000000	    -45.00000000	   1892.71343321	  -1901.67754257	    143.46808934	    135.71353470	    726.57920590	     23.46672598	      9.82614560	    -18.32916129
      3.45000000	     24.38594144	     32.82085950	     47.79582084	    -69.05005801	    773.26409580	      7.12154882	     13.80579107	     36.24638398	     32.10825237	     45.00000000	    -45.00000000	  -4757.26762317	  -1553.44091801	    146.41686711	    179.99999979	   2163.57638177	     53.48243443	     21.04644226	     13.58067610	      6.66748683	    -45.00000000	    -35.86669382	     45.00000000	    -45.00000000	   1892.64478256	  -1901.73011906	    143.50470297	    135.83887539	    726.58628302	     23.41684643	      9.73687179	    -18.33991231
      3.46000000	     24.45386559	     32.76072844	     47.79194350	    -69.65753664	    773.17035100	      7.15265600	     13.66269141	     36.01907662	     32.46653854	     45.00000000	    -45.00000000	  -4757.20573076	  -1553.55359418	    146.77353366	    179.99999979	   2163.48634949	     53.41706119	     21.03272759	     13.27764020	      6.81100661	    -45.00000000	    -35.64126580	     45.00000000	    -45.00000000	   1892.77368839	  -1901.63750506	    143.40810653	    135.98239341	    726.53628426	     23.34728586	      9.88688199	    -18.33370010
      3.47000000	     24.44726144	     32.82349793	     47.62368513	    -70.29758211	    773.08697118	      7.16671673	     13.81549774	     36.27875937	     32.08340250	     45.00000000	    -45.00000000	  -4757.35034543	  -1553.37023873	    146.31956795	    179.99999979	   2163.51953099	     53.43406397	     21.08045229	     13.67499239	      6.65757425	    -45.00000000	    -35.88430393	     45.00000000	    -45.00000000	   1892.69623178	  -1901.59793464	    143.38955597	    136.17113347	    726.60402981	     23.20059790	      9.76985552	    -18.34788132
      3.48000000	     24.53009091	     32.72924888	     47.66602085	    -70.96580484	    773.02045458	      7.16399898	     13.60696515	     36.00097951	     32.63023518	     45.00000000	    -45.00000000	  -4757.31400063	  -1553.57961351	    146.87531877	    179.99999979	   2163.52045157	     53.30730350	     21.05326785	     13.25427491	      6.83250400	    -45.00000000	    -35.59303954	     45.00000000	    -45.00000000	   1892.87282760	  -1901.54907762	    143.28220854	    136.37985605	    726.54024958	     23.06564504	      9.95867328	    -18.34194450
      3.49000000	     24.55388284	     32.80127883	     47.56750901	    -71.65997885	    772.97347555	      7.15045369	     13.74022506	     36.19590291	     32.35670643	     45.00000000	    -45.00000000	  -4757.43065188	  -1553.40038328	    146.62902571	    179.99999979	   2163.60971739	     53.25532297	     21.09522559	     13.56512177	      6.75912193	    -45.00000000	    -35.78052597	     45.00000000	    -45.00000000	   1892.81464864	  -1901.59658017	    143.31932179	    136.66479276	    726.61984063	     22.83745265	      9.87291129	    -18.35107473
      3.50000000	     24.68049429	     32.64617575	     47.32984970	    -72.37350058	    772.94906104	      7.13239595	     13.69722568	     36.11117673	     32.34179692	     45.00000000	    -45.00000000	  -4757.48198554	  -1553.39272677	    146.37282065	    179.99999979	   2163.54827892	     53.16660277	     21.12140546	     13.50401963	      6.76457328	    -45.00000000	    -35.73330837	     45.00000000	    -45.00000000	   1892.90919540	  -1901.45108341	    143.09810996	    136.82956877	    726.62946451	     22.66997005	     10.01015627	    -18.37854919
      3.51000000	     24.65673199	     32.69932692	     47.41110332	    -73.10498045	    772.94867853	      7.11637546	     13.73277144	     36.23648062	     32.45634957	     45.00000000	    -45.00000000	  -4757.54005526	  -1553.40637980	    146.65755561	    179.99999979	   2163.72574230	     53.06668550	     21.15487028	     13.64822219	      6.70388558	    -45.00000000	    -35.78397869	     45.00000000	    -45.00000000	   1892.84363936	  -1901.44147918	    143.22928093	    137.20756273	    726.63921950	     22.45189652	      9.91028849	    -18.36857777
      3.52000000	     24.87318529	     32.51604852	     47.04624106	    -73.85310282	    772.97641022	      7.10410241	     13.72402519	     36.08363030	     32.34422600	     45.00000000	    -45.00000000	  -4757.61899167	  -1553.30006349	    146.20788940	    179.99999979	   2163.62303877	     52.95297377	     21.17292625	     13.54676408	      6.80123882	    -45.00000000	    -35.78532338	     45.00000000	    -45.00000000	   1892.98937633	  -1901.34688663	    142.86499696	    137.34145043	    726.64792787	     22.29006169	     10.12235044	    -18.40508818
      3.53000000	     24.78421979	     32.62331600	     47.26133863	    -74.61661999	    773.03516558	      7.09680413	     13.70721514	     36.29589832	     32.62962877	     45.00000000	    -45.00000000	  -4757.66020653	  -1553.40209590	    146.76232144	    179.99999979	   2163.80383396	     52.84226592	     21.22357244	     13.75335489	      6.68464912	    -45.00000000	    -35.80049945	     45.00000000	    -45.00000000	   1892.85293898	  -1901.28859203	    143.15832763	    137.82786221	    726.67427852	     22.05912031	      9.92772673	    -18.39865909
